<svg xmlns="http://www.w3.org/2000/svg" viewBox="0 0 400 300" fill="none" stroke="currentColor" stroke-width="2.4" stroke-linecap="round" stroke-linejoin="round" role="img" aria-label="고양 가족 체험">
  <!-- 관람차 -->
  <circle cx="104" cy="120" r="70"/>
  <circle cx="104" cy="120" r="14"/>
  <path d="M104 50 V106 M104 134 V190 M34 120 H90 M118 120 H174"/>
  <path d="M54 70 L94 110 M114 130 L154 170 M154 70 L114 110 M94 130 L54 170"/>
  <!-- 곤돌라 -->
  <circle cx="104" cy="50" r="9"/>
  <circle cx="174" cy="120" r="9"/>
  <circle cx="34" cy="120" r="9"/>
  <circle cx="154" cy="70" r="8"/>
  <circle cx="54" cy="70" r="8"/>
  <!-- 지지대 -->
  <path d="M104 134 L74 232 M104 134 L134 232"/>
  <path d="M62 232 h84"/>

  <!-- 풍선 -->
  <ellipse cx="300" cy="66" rx="22" ry="26"/>
  <path d="M300 92 L296 100 L304 100 z"/>
  <path d="M300 100 C306 128 292 152 300 178"/>
  <ellipse cx="348" cy="94" rx="17" ry="20"/>
  <path d="M348 114 L345 121 L351 121 z"/>
  <path d="M348 121 C353 142 342 160 348 178"/>

  <!-- 지면 -->
  <path d="M18 260 h364"/>

  <!-- 미끄럼틀 -->
  <path d="M244 260 V186 h30"/>
  <path d="M274 186 C298 210 316 238 330 260"/>
  <path d="M266 190 C288 214 306 240 320 262"/>
  <path d="M244 208 h-16 M244 226 h-16 M244 244 h-16"/>
  <path d="M228 260 V186"/>

  <!-- 고양이 (놀이 자세, 앞발 뻗어 인사) -->
  <g transform="translate(178 218)">
    <!-- 꼬리 -->
    <path d="M-26 22 C-48 20 -54 -2 -44 -12"/>
    <!-- 몸통 -->
    <path d="M-24 24 C-28 2 -16 -12 0 -12 C16 -12 28 2 24 24"/>
    <path d="M-24 24 h48"/>
    <!-- 뻗은 앞발 -->
    <path d="M18 -2 L40 -14"/>
    <circle cx="44" cy="-16" r="5"/>
    <path d="M-10 24 v-10"/>
    <!-- 머리 -->
    <circle cx="0" cy="-34" r="20"/>
    <path d="M-14 -46 L-18 -63 L-1 -54"/>
    <path d="M14 -46 L18 -63 L1 -54"/>
    <path d="M-12 -31 L-30 -34 M-12 -25 L-30 -23"/>
    <path d="M12 -31 L30 -34 M12 -25 L30 -23"/>
    <path d="M-3 -25 L0 -22 L3 -25"/>
    <circle cx="-7" cy="-36" r="1.9" fill="currentColor" stroke="none"/>
    <circle cx="7" cy="-36" r="1.9" fill="currentColor" stroke="none"/>
  </g>
</svg>
